<?xml version="1.0" encoding="UTF-8"?>
<svg xmlns="http://www.w3.org/2000/svg" xmlns:xlink="http://www.w3.org/1999/xlink" width="200px" height="200px" viewBox="0 0 200 200" version="1.1">
<g id="surface1">
<path style=" stroke:none;fill-rule:evenodd;fill:rgb(74.117647%,76.470588%,78.039216%);fill-opacity:1;" d="M 195.101562 171.4375 L 90.8125 67.148438 C 81.636719 57.972656 96.921875 36.070312 79.355469 18.507812 L 47.328125 0 L 40.566406 6.761719 L 58.230469 24.421875 C 64.992188 31.183594 59.929688 46.386719 53.140625 53.175781 C 46.40625 59.910156 31.1875 64.988281 24.425781 58.226562 L 6.761719 40.566406 L 0 47.328125 L 18.507812 79.355469 C 35.976562 96.824219 58.246094 81.910156 67.148438 90.8125 L 171.4375 195.101562 C 177.984375 201.566406 188.523438 201.535156 195.027344 195.027344 C 201.535156 188.519531 201.566406 177.980469 195.101562 171.4375 Z M 188.339844 188.339844 C 185.539062 191.136719 181 191.136719 178.199219 188.339844 C 175.398438 185.539062 175.398438 181 178.199219 178.199219 C 181 175.398438 185.539062 175.398438 188.339844 178.199219 C 191.136719 181 191.136719 185.539062 188.339844 188.339844 Z M 188.339844 188.339844 "/>
<path style=" stroke:none;fill-rule:nonzero;fill:rgb(58.431373%,64.705882%,65.098039%);fill-opacity:1;" d="M 67.363281 24.667969 L 45.023438 2.300781 L 40.566406 6.761719 L 58.230469 24.421875 C 64.992188 31.183594 59.929688 46.386719 53.140625 53.175781 C 46.40625 59.910156 31.1875 64.988281 24.425781 58.226562 L 6.761719 40.566406 L 2.808594 44.515625 L 25.164062 66.894531 C 28.210938 69.945312 32.992188 71.558594 38.984375 71.558594 C 47.96875 71.558594 57.890625 67.910156 63.113281 62.6875 C 71.945312 53.847656 75.734375 33.042969 67.363281 24.667969 Z M 191.492188 175.898438 L 91.550781 75.945312 C 89.464844 73.859375 86.699219 72.714844 83.753906 72.714844 C 80.808594 72.714844 78.039062 73.863281 75.957031 75.945312 C 71.660156 80.253906 71.660156 87.230469 75.957031 91.539062 L 175.898438 191.492188 C 177.980469 193.574219 180.753906 194.722656 183.695312 194.722656 C 186.640625 194.722656 189.410156 193.574219 191.492188 191.492188 C 195.789062 187.183594 195.789062 180.207031 191.492188 175.898438 Z M 188.339844 188.339844 C 185.539062 191.136719 181 191.136719 178.199219 188.339844 C 175.398438 185.539062 175.398438 181 178.199219 178.199219 C 181 175.398438 185.539062 175.398438 188.339844 178.199219 C 191.136719 181 191.136719 185.539062 188.339844 188.339844 Z M 188.339844 188.339844 "/>
<path style=" stroke:none;fill-rule:evenodd;fill:rgb(92.54902%,94.117647%,94.509804%);fill-opacity:1;" d="M 160 28 L 186 8 L 200 22 L 180 48 L 170 48 L 110 108 L 100 98 L 160 38 Z M 160 28 "/>
<path style=" stroke:none;fill-rule:evenodd;fill:rgb(74.117647%,76.470588%,78.039216%);fill-opacity:1;" d="M 105 103 L 110 108 L 170 48 L 180 48 L 200 22 L 193 15 Z M 105 103 "/>
<path style=" stroke:none;fill-rule:evenodd;fill:rgb(82.745098%,32.941176%,0%);fill-opacity:1;" d="M 85.019531 92.191406 L 86.726562 93.878906 L 11.535156 168.320312 C 9.273438 170.550781 8.003906 173.59375 8.003906 176.769531 C 8.003906 179.945312 9.273438 182.988281 11.535156 185.214844 L 21.773438 195.351562 C 26.484375 200.015625 32.113281 202.003906 36.824219 197.339844 L 114.03125 120.90625 L 115.738281 122.597656 C 117.621094 124.464844 120.679688 124.464844 122.5625 122.597656 C 124.449219 120.730469 124.449219 117.707031 122.5625 115.839844 L 91.847656 85.433594 C 89.960938 83.566406 86.902344 83.566406 85.019531 85.433594 C 83.136719 87.296875 83.132812 90.324219 85.019531 92.191406 Z M 85.019531 92.191406 "/>
<path style=" stroke:none;fill-rule:evenodd;fill:rgb(90.196078%,40%,7.058824%);fill-opacity:1;" d="M 100.5 107.5 L 17.1875 190.8125 L 21.773438 195.355469 C 26.484375 200.019531 32.113281 202.007812 36.824219 197.34375 L 113.972656 120.96875 Z M 100.5 107.5 "/>
</g>
</svg>
